<mxfile host="app.diagrams.net" modified="2022-07-30T11:37:00.288Z" agent="5.0 (Windows NT 10.0; Win64; x64) AppleWebKit/537.36 (KHTML, like Gecko) Chrome/103.0.0.0 Safari/537.36" etag="jl8cFBLfOOzkggoAi4U7" version="20.0.4" type="github">
  <diagram id="mrwuzQgarnRukt2Ca9zD" name="第 1 页">
    <mxGraphModel dx="1087" dy="598" grid="0" gridSize="10" guides="1" tooltips="1" connect="1" arrows="1" fold="1" page="1" pageScale="1" pageWidth="827" pageHeight="1169" math="0" shadow="0">
      <root>
        <mxCell id="0" />
        <mxCell id="1" parent="0" />
        <mxCell id="nt_hM3aEsompQMemLYJd-26" value="伙伴系统分区" style="rounded=0;whiteSpace=wrap;html=1;strokeWidth=1;" vertex="1" parent="1">
          <mxGeometry x="100" y="300" width="310" height="100" as="geometry" />
        </mxCell>
        <mxCell id="nt_hM3aEsompQMemLYJd-27" value="EdgerOS 分区" style="rounded=0;whiteSpace=wrap;html=1;strokeWidth=1;" vertex="1" parent="1">
          <mxGeometry x="330" y="510" width="310" height="100" as="geometry" />
        </mxCell>
        <mxCell id="nt_hM3aEsompQMemLYJd-28" value="" style="shape=table;html=1;whiteSpace=wrap;startSize=0;container=1;collapsible=0;childLayout=tableLayout;strokeWidth=1;" vertex="1" parent="1">
          <mxGeometry x="410" y="360" width="309" height="40" as="geometry" />
        </mxCell>
        <mxCell id="nt_hM3aEsompQMemLYJd-29" value="" style="shape=tableRow;horizontal=0;startSize=0;swimlaneHead=0;swimlaneBody=0;top=0;left=0;bottom=0;right=0;collapsible=0;dropTarget=0;fillColor=none;points=[[0,0.5],[1,0.5]];portConstraint=eastwest;strokeWidth=1;" vertex="1" parent="nt_hM3aEsompQMemLYJd-28">
          <mxGeometry width="309" height="40" as="geometry" />
        </mxCell>
        <mxCell id="nt_hM3aEsompQMemLYJd-30" value="Boot(EFI)" style="shape=partialRectangle;html=1;whiteSpace=wrap;connectable=0;fillColor=none;top=0;left=0;bottom=0;right=0;overflow=hidden;strokeWidth=1;" vertex="1" parent="nt_hM3aEsompQMemLYJd-29">
          <mxGeometry width="103" height="40" as="geometry">
            <mxRectangle width="103" height="40" as="alternateBounds" />
          </mxGeometry>
        </mxCell>
        <mxCell id="nt_hM3aEsompQMemLYJd-31" value="Backup(FAT)" style="shape=partialRectangle;html=1;whiteSpace=wrap;connectable=0;fillColor=none;top=0;left=0;bottom=0;right=0;overflow=hidden;strokeWidth=1;" vertex="1" parent="nt_hM3aEsompQMemLYJd-29">
          <mxGeometry x="103" width="103" height="40" as="geometry">
            <mxRectangle width="103" height="40" as="alternateBounds" />
          </mxGeometry>
        </mxCell>
        <mxCell id="nt_hM3aEsompQMemLYJd-32" value="System(TpsFS)" style="shape=partialRectangle;html=1;whiteSpace=wrap;connectable=0;fillColor=none;top=0;left=0;bottom=0;right=0;overflow=hidden;strokeWidth=1;" vertex="1" parent="nt_hM3aEsompQMemLYJd-29">
          <mxGeometry x="206" width="103" height="40" as="geometry">
            <mxRectangle width="103" height="40" as="alternateBounds" />
          </mxGeometry>
        </mxCell>
        <mxCell id="nt_hM3aEsompQMemLYJd-41" value="EdgerOS 分区" style="rounded=0;whiteSpace=wrap;html=1;strokeWidth=1;" vertex="1" parent="1">
          <mxGeometry x="410" y="300" width="309" height="60" as="geometry" />
        </mxCell>
      </root>
    </mxGraphModel>
  </diagram>
</mxfile>
